<svg id="splitsvg" version="1.1" xmlns="http://www.w3.org/2000/svg" xmlns:xlink="http://www.w3.org/1999/xlink" width="1380" height="860"><g id="svgg"><path id="path0" d="M191.993 98.990 C 188.117 99.808,183.317 103.958,178.779 110.413 C 177.885 111.686,175.167 115.840,175.167 115.935 C 175.167 115.988,174.679 116.807,174.083 117.756 C 173.487 118.705,173.000 119.525,173.000 119.578 C 173.000 119.630,172.798 119.991,172.551 120.378 C 171.927 121.360,167.968 128.289,167.007 130.083 C 166.762 130.542,166.290 131.404,165.958 132.000 C 162.386 138.418,157.162 149.372,154.234 156.583 C 153.713 157.867,153.182 159.208,153.053 159.565 C 152.685 160.585,151.226 163.615,150.848 164.146 C 150.364 164.826,149.454 165.203,146.411 165.985 C 141.977 167.123,141.339 167.318,138.917 168.277 C 131.369 171.263,129.083 173.621,129.083 178.420 C 129.083 183.886,132.662 186.387,139.098 185.418 C 142.187 184.953,143.309 184.910,143.441 185.253 C 143.570 185.589,143.156 187.337,142.157 190.667 C 138.960 201.329,138.134 209.757,139.922 213.487 C 141.722 217.243,144.754 218.752,148.018 217.515 C 151.519 216.188,152.480 214.219,154.658 203.917 C 155.567 199.620,157.333 193.333,159.621 186.250 C 160.928 182.201,161.023 182.138,166.833 181.420 C 172.148 180.762,173.652 180.524,177.500 179.727 C 181.497 178.899,183.789 178.718,184.263 179.191 C 184.634 179.563,184.782 181.108,184.908 185.917 C 185.088 192.832,185.572 198.232,186.439 203.000 C 186.663 204.237,186.912 205.625,186.992 206.083 C 188.156 212.804,191.776 219.009,195.600 220.840 C 203.161 224.460,209.928 215.920,205.657 208.149 C 204.746 206.491,204.095 204.699,203.601 202.487 C 203.182 200.611,203.095 199.979,202.588 195.083 C 202.116 190.522,201.748 177.355,202.083 177.019 C 202.175 176.927,202.847 176.729,203.576 176.579 C 206.556 175.965,208.324 174.635,209.333 172.250 C 211.346 167.492,208.851 161.847,204.316 160.902 C 201.748 160.366,201.731 160.291,202.509 153.111 C 202.789 150.529,203.237 146.392,203.504 143.917 C 204.015 139.192,204.750 131.023,204.905 128.333 C 204.955 127.462,205.086 125.250,205.196 123.417 C 205.694 115.094,205.414 109.146,204.408 106.674 C 201.938 100.608,197.460 97.837,191.993 98.990 M260.036 118.208 C 259.926 119.698,259.682 122.229,259.495 123.833 C 259.308 125.438,259.114 127.162,259.065 127.667 C 258.945 128.880,258.222 133.636,257.823 135.833 C 257.507 137.573,257.507 137.586,257.838 138.000 C 261.734 142.876,260.640 149.119,255.408 151.866 L 254.234 152.483 253.606 154.783 C 252.233 159.819,249.569 167.563,247.999 171.083 C 247.835 171.450,247.499 172.237,247.251 172.833 C 247.004 173.429,246.396 174.770,245.901 175.812 C 245.405 176.855,245.000 177.731,245.000 177.760 C 245.000 177.788,244.336 179.035,243.525 180.531 C 240.758 185.633,238.711 188.786,235.460 192.955 C 234.657 193.985,234.000 194.860,234.000 194.900 C 234.000 195.276,238.353 196.367,238.680 196.072 C 242.572 192.566,251.458 179.816,255.709 171.639 C 265.436 152.929,267.409 131.436,260.776 116.458 C 260.222 115.207,260.267 115.101,260.036 118.208 M187.599 124.934 C 187.375 126.666,187.143 128.721,187.084 129.500 C 187.024 130.279,186.833 132.304,186.657 134.000 C 185.963 140.715,185.174 150.650,184.832 156.995 C 184.620 160.925,184.642 160.878,182.971 161.141 C 180.123 161.590,170.263 162.133,169.356 161.890 C 168.516 161.665,168.861 160.816,175.086 147.750 C 176.615 144.542,178.077 141.504,178.336 141.000 C 178.594 140.496,180.205 137.233,181.917 133.750 C 186.099 125.238,187.892 121.670,187.955 121.733 C 187.984 121.761,187.824 123.202,187.599 124.934  M -25 0 L -5 0 L -5 20 L -25 20 Z M 405 0 L 425 0 L 425 20 L 405 20 Z" stroke="none" fill="#3bb38b" fill-rule="evenodd" transform="translate(30,0)"></path><path id="path1" d="M260.833 108.601 C 251.972 112.023,240.140 122.525,235.083 131.457 C 234.992 131.619,234.566 132.314,234.137 133.001 C 230.188 139.330,226.635 148.338,224.736 156.833 C 224.316 158.712,223.960 160.253,223.944 160.256 C 223.859 160.276,221.756 161.082,219.500 161.959 C 218.079 162.512,216.550 163.084,216.102 163.230 C 213.140 164.195,212.699 164.918,211.002 171.583 C 210.349 174.150,209.642 176.887,209.432 177.667 C 208.166 182.359,208.314 184.063,210.133 185.701 C 211.863 187.260,213.046 187.374,218.463 186.499 C 220.322 186.199,221.881 185.992,221.929 186.040 C 221.976 186.087,222.085 187.467,222.171 189.105 C 222.257 190.743,222.407 193.021,222.504 194.167 L 222.681 196.250 222.094 198.083 C 221.348 200.412,221.316 200.245,222.583 200.667 C 223.179 200.865,223.667 201.077,223.668 201.139 C 223.668 201.200,223.521 201.925,223.339 202.750 C 221.804 209.736,220.826 216.570,220.345 223.667 C 219.668 233.670,219.888 233.803,224.857 226.392 C 227.083 223.072,229.000 220.076,229.000 219.917 C 229.000 219.865,229.450 219.077,230.000 218.167 C 230.550 217.256,231.000 216.474,231.000 216.430 C 231.000 216.385,231.220 215.974,231.490 215.517 C 232.123 214.443,234.760 209.230,235.756 207.083 C 236.181 206.167,236.548 205.397,236.572 205.373 C 236.596 205.349,237.116 205.517,237.728 205.748 C 239.073 206.254,238.998 206.252,239.008 205.792 C 239.042 204.321,240.831 201.411,243.176 199.015 C 243.318 198.869,244.251 197.783,245.248 196.600 L 247.062 194.450 250.156 197.617 C 253.600 201.141,254.006 201.401,256.083 201.405 C 258.487 201.410,260.145 200.153,261.232 197.500 C 261.589 196.629,262.018 195.617,262.184 195.250 C 262.351 194.883,262.798 193.833,263.177 192.917 C 263.557 192.000,264.276 190.275,264.776 189.083 C 266.831 184.187,266.712 184.571,266.633 183.070 C 266.553 181.545,266.046 180.565,262.417 174.917 C 262.122 174.458,261.711 173.783,261.502 173.416 L 261.123 172.749 261.873 171.166 C 264.702 165.191,266.417 160.337,268.026 153.750 C 271.724 138.611,269.859 120.835,263.420 109.864 C 262.312 107.976,262.374 108.006,260.833 108.601 M260.265 115.241 C 260.886 115.862,262.538 120.849,263.409 124.730 C 268.357 146.792,259.370 173.126,239.204 195.656 L 238.393 196.561 236.238 195.787 C 235.053 195.361,233.197 194.673,232.114 194.257 C 231.030 193.842,229.596 193.343,228.926 193.148 L 227.709 192.794 227.602 191.605 C 226.031 174.031,229.392 154.035,236.206 140.417 C 241.399 130.040,248.925 121.573,257.833 116.086 C 259.705 114.933,259.892 114.868,260.265 115.241 M250.000 135.339 C 240.626 137.004,240.179 150.263,249.417 152.659 C 250.674 152.985,254.012 152.785,254.329 152.366 C 254.377 152.302,254.928 151.989,255.553 151.670 C 264.106 147.298,259.468 133.657,250.000 135.339 M222.761 168.677 C 222.498 170.938,222.244 174.320,222.034 178.333 L 221.917 180.583 220.333 180.802 C 219.463 180.923,217.656 181.190,216.319 181.396 L 213.888 181.770 214.367 180.010 C 214.630 179.042,214.915 177.900,214.999 177.472 C 215.084 177.044,215.343 176.032,215.576 175.222 C 215.808 174.412,216.289 172.588,216.645 171.167 L 217.291 168.583 218.437 168.100 C 219.853 167.503,222.898 166.378,222.968 166.427 C 222.996 166.447,222.903 167.459,222.761 168.677 M259.000 179.583 C 259.000 179.639,259.401 180.300,259.892 181.053 C 261.549 183.595,261.537 183.131,260.038 186.583 C 259.481 187.867,258.527 190.117,257.918 191.583 C 257.308 193.050,256.641 194.640,256.435 195.116 L 256.060 195.983 254.571 194.450 C 253.752 193.607,252.485 192.298,251.755 191.543 L 250.427 190.169 250.743 189.626 C 250.916 189.328,251.104 189.046,251.160 189.000 C 251.379 188.820,255.000 183.580,255.000 183.443 C 255.000 183.409,255.450 182.697,256.000 181.860 C 256.550 181.024,257.000 180.297,257.000 180.245 C 257.000 180.193,257.268 179.732,257.595 179.220 L 258.190 178.290 258.595 178.886 C 258.818 179.214,259.000 179.528,259.000 179.583 M267.897 195.558 C 265.306 196.220,264.017 197.932,262.106 203.250 C 260.281 208.329,259.671 210.494,258.492 216.083 C 257.520 220.692,257.775 220.465,252.318 221.576 C 244.905 223.085,243.153 224.290,243.102 227.917 C 243.046 231.897,246.796 234.155,252.009 233.278 C 254.156 232.917,254.667 232.868,254.667 233.025 C 254.667 233.099,254.367 234.905,254.001 237.038 C 253.635 239.171,253.230 241.704,253.101 242.667 C 252.972 243.629,252.453 247.267,251.946 250.750 C 250.737 259.066,249.735 267.569,249.145 274.500 C 248.855 277.914,248.853 286.586,249.142 288.083 C 250.146 293.280,251.558 295.902,254.542 298.110 C 261.944 303.586,269.924 296.138,264.303 288.999 C 263.409 287.864,263.167 286.745,263.168 283.766 C 263.170 279.447,264.562 265.238,265.831 256.583 C 266.114 254.658,266.495 251.996,266.678 250.667 C 267.174 247.076,268.956 236.069,269.444 233.583 C 270.174 229.864,270.144 229.889,274.682 229.266 C 276.553 229.009,278.608 228.691,279.250 228.558 C 281.087 228.179,283.487 228.094,285.804 228.328 C 289.024 228.652,290.164 228.158,291.320 225.936 C 293.245 222.235,290.861 218.262,286.083 217.209 C 284.454 216.850,278.203 216.815,277.250 217.159 C 276.628 217.384,273.954 217.519,273.786 217.333 C 273.706 217.244,274.547 213.701,275.744 209.083 C 276.995 204.262,277.102 202.761,276.364 200.391 C 275.260 196.842,271.429 194.655,267.897 195.558 M202.367 224.498 C 201.562 224.688,201.469 224.883,202.250 224.743 C 202.972 224.614,203.636 224.333,203.167 224.355 C 203.029 224.362,202.669 224.426,202.367 224.498 M203.250 225.101 C 199.466 226.016,196.576 230.259,195.089 237.083 C 194.926 237.835,194.350 238.958,194.075 239.064 C 193.898 239.131,193.583 238.661,192.921 237.342 C 188.488 228.503,182.197 226.333,174.630 231.034 C 172.068 232.626,168.359 237.958,166.828 242.250 C 165.379 246.312,165.081 247.401,164.405 251.083 C 163.601 255.471,163.248 263.370,163.733 266.141 C 164.189 268.744,165.586 271.526,167.075 272.793 C 170.692 275.869,175.370 275.983,179.667 273.097 C 180.668 272.425,183.714 269.515,186.082 266.969 C 186.908 266.081,187.949 265.035,188.396 264.645 L 189.208 263.936 189.097 265.259 C 189.037 265.988,188.880 267.783,188.749 269.250 C 187.760 280.306,188.000 284.310,189.822 287.129 C 193.097 292.196,200.685 291.376,201.811 285.833 C 201.914 285.329,202.076 283.717,202.171 282.250 C 202.635 275.092,204.498 262.627,206.340 254.352 C 207.668 248.388,209.098 242.761,210.158 239.326 C 212.532 231.627,211.785 227.764,207.500 225.574 C 206.595 225.112,204.274 224.853,203.250 225.101 M288.356 236.674 C 271.705 240.005,262.298 265.362,272.503 279.407 C 277.640 286.477,287.475 289.876,295.412 287.325 C 299.275 286.083,302.722 282.205,302.739 279.083 C 302.764 274.467,297.682 272.864,294.142 276.371 C 291.804 278.688,286.970 278.567,284.391 276.128 C 282.574 274.410,280.682 269.436,281.958 269.735 C 285.040 270.458,289.576 269.739,291.932 268.154 C 292.399 267.840,293.111 267.359,293.515 267.085 C 301.335 261.781,305.695 251.448,303.230 244.064 C 301.159 237.861,295.780 235.188,288.356 236.674 M111.000 236.905 C 106.833 238.061,103.991 241.938,101.683 249.615 C 101.303 250.881,100.658 253.005,100.251 254.336 C 98.359 260.515,96.726 267.534,95.714 273.833 C 94.230 283.075,96.918 289.299,102.783 290.204 C 104.891 290.529,107.809 289.664,108.949 288.376 C 110.083 287.096,110.524 286.445,111.292 284.917 C 111.753 284.000,112.249 283.025,112.395 282.750 C 112.541 282.475,113.288 280.975,114.056 279.417 C 114.824 277.858,115.978 275.571,116.621 274.333 C 117.264 273.096,118.113 271.446,118.508 270.667 C 119.419 268.869,120.267 267.429,120.903 266.600 L 121.401 265.949 121.525 266.410 C 121.592 266.664,121.731 267.894,121.833 269.144 C 122.842 281.553,126.173 287.136,132.083 286.327 C 135.366 285.878,137.064 284.146,138.585 279.695 C 139.364 277.416,142.682 270.670,144.029 268.625 L 145.099 267.000 145.051 268.125 C 145.024 268.744,144.908 270.675,144.793 272.417 C 144.533 276.339,144.550 283.937,144.824 286.500 C 145.845 296.046,151.083 301.805,156.376 299.199 C 159.548 297.637,160.225 294.261,158.182 290.196 C 156.138 286.132,156.649 274.179,159.591 257.250 C 160.794 250.325,160.738 248.817,159.184 246.259 C 155.924 240.892,149.581 241.577,145.384 247.750 C 145.010 248.300,144.564 248.909,144.393 249.104 C 144.029 249.520,139.570 255.147,139.083 255.806 C 136.596 259.168,135.448 260.563,135.564 260.083 C 136.523 256.136,137.501 249.740,137.499 247.439 C 137.490 238.774,128.281 235.985,122.641 242.940 C 121.403 244.466,119.838 246.745,116.248 252.250 C 113.763 256.060,112.985 256.780,113.952 254.372 C 114.274 253.571,114.684 252.546,114.863 252.093 C 115.043 251.640,115.588 250.440,116.075 249.426 C 118.206 244.992,118.739 243.340,118.632 241.495 C 118.428 237.977,114.863 235.833,111.000 236.905 M219.325 241.226 C 212.359 243.717,207.194 267.574,210.007 284.266 C 210.932 289.753,213.775 292.911,217.757 292.875 C 222.097 292.835,223.737 290.816,226.724 281.831 C 229.369 273.875,230.573 270.853,231.888 268.875 C 232.511 267.938,233.000 267.553,233.000 267.998 C 233.000 268.161,233.835 269.424,235.281 271.451 C 237.631 274.744,242.359 275.816,244.609 273.566 C 246.757 271.419,246.488 268.599,243.905 266.193 C 242.796 265.160,242.733 265.024,242.219 262.583 C 241.866 260.907,241.882 258.330,242.253 257.000 C 244.055 250.536,239.003 245.922,233.233 248.763 C 232.146 249.298,229.941 251.299,228.833 252.754 C 227.920 253.954,227.248 254.958,226.382 256.417 C 225.364 258.131,225.225 258.412,223.985 261.250 C 222.830 263.896,222.909 262.643,224.269 256.750 C 224.693 254.917,225.338 252.292,225.703 250.917 C 226.845 246.615,226.700 244.531,225.135 242.754 C 223.781 241.216,221.230 240.545,219.325 241.226 M182.401 244.958 C 183.320 245.882,184.836 250.205,184.832 251.893 C 184.827 253.973,180.347 258.249,177.463 258.927 C 176.124 259.242,176.534 256.429,178.738 250.182 C 179.221 248.814,180.919 245.248,181.305 244.792 C 181.644 244.390,181.869 244.425,182.401 244.958 M291.157 251.279 C 290.448 253.411,287.360 257.399,285.758 258.254 L 285.141 258.583 284.821 258.190 C 283.909 257.072,287.072 252.599,290.333 250.394 C 291.613 249.529,291.706 249.629,291.157 251.279 M293.162 292.458 C 293.158 294.753,293.106 295.663,292.988 295.462 C 292.319 294.313,289.390 293.827,287.901 294.618 C 284.980 296.168,284.976 300.830,287.894 302.378 C 289.346 303.149,291.741 302.823,292.768 301.715 L 293.157 301.295 293.266 301.981 C 293.370 302.627,293.409 302.667,293.938 302.667 L 294.500 302.667 294.500 295.917 L 294.500 289.167 293.833 289.167 L 293.167 289.167 293.162 292.458 M272.500 296.250 L 272.500 302.667 273.167 302.667 L 273.833 302.667 273.838 299.625 L 273.843 296.583 274.697 297.500 C 275.167 298.004,276.309 299.238,277.234 300.241 C 278.159 301.245,279.048 302.201,279.208 302.366 C 279.533 302.700,281.167 302.805,281.167 302.492 C 281.167 302.301,276.539 297.293,275.895 296.787 C 275.352 296.359,275.392 296.159,276.208 295.226 C 276.927 294.405,278.273 292.820,279.012 291.927 C 279.234 291.657,279.698 291.124,280.042 290.741 C 280.841 289.852,280.835 289.831,279.792 289.844 L 278.917 289.855 277.417 291.625 C 276.592 292.599,275.467 293.933,274.917 294.591 L 273.917 295.787 273.871 292.810 L 273.826 289.833 273.163 289.833 L 272.500 289.833 272.500 296.250 M282.442 290.638 C 282.078 291.041,282.092 291.714,282.471 292.058 C 283.132 292.655,284.167 292.196,284.167 291.304 C 284.167 290.451,283.015 290.006,282.442 290.638 M298.833 294.126 C 297.241 294.352,296.500 295.071,296.501 296.388 C 296.502 297.942,297.037 298.473,299.281 299.145 C 300.644 299.553,301.000 299.830,301.000 300.481 C 301.000 301.426,299.532 301.739,297.812 301.160 C 296.222 300.624,295.586 301.611,297.042 302.355 C 298.659 303.181,301.060 302.888,301.920 301.761 C 302.336 301.215,302.512 299.671,302.206 299.247 C 301.828 298.725,300.858 298.146,299.714 297.760 C 297.757 297.100,297.387 296.677,298.070 295.883 C 298.551 295.324,299.984 295.233,300.719 295.714 C 301.405 296.164,302.000 295.835,302.000 295.007 C 302.000 294.580,299.852 293.982,298.833 294.126 M282.500 298.500 L 282.500 302.667 283.167 302.667 L 283.833 302.667 283.833 298.500 L 283.833 294.333 283.167 294.333 L 282.500 294.333 282.500 298.500 M291.383 295.770 C 292.587 296.379,293.051 297.148,293.049 298.524 C 293.044 301.894,288.119 302.577,287.150 299.342 C 286.414 296.887,289.105 294.617,291.383 295.770 M267.572 301.077 C 266.847 302.183,268.345 303.500,269.224 302.529 C 269.545 302.174,269.591 301.158,269.300 300.867 C 268.927 300.493,267.871 300.622,267.572 301.077  M -25 0 L -5 0 L -5 20 L -25 20 Z M 405 0 L 425 0 L 425 20 L 405 20 Z" stroke="none" fill="#14345c" fill-rule="evenodd" transform="translate(490,0)"></path><path id="path2" d="M264.712 137.333 C 264.712 137.746,264.745 137.915,264.784 137.708 C 264.824 137.502,264.824 137.165,264.784 136.958 C 264.745 136.752,264.712 136.921,264.712 137.333  M -25 0 L -5 0 L -5 20 L -25 20 Z M 405 0 L 425 0 L 425 20 L 405 20 Z" stroke="none" fill="#24696f" fill-rule="evenodd" transform="translate(950,0)"></path><path id="path3" d="M264.705 138.500 C 264.705 138.821,264.740 138.952,264.782 138.792 C 264.823 138.631,264.823 138.369,264.782 138.208 C 264.740 138.048,264.705 138.179,264.705 138.500  M -25 0 L -5 0 L -5 20 L -25 20 Z M 405 0 L 425 0 L 425 20 L 405 20 Z" stroke="none" fill="#1c4f64" fill-rule="evenodd" transform="translate(30,460)"></path><path id="path4" d=" M -25 0 L -5 0 L -5 20 L -25 20 Z M 405 0 L 425 0 L 425 20 L 405 20 Z" stroke="none" fill="#2c8578" fill-rule="evenodd" transform="translate(490,460)"></path></g></svg>