<svg id="svg" version="1.1" xmlns="http://www.w3.org/2000/svg" xmlns:xlink="http://www.w3.org/1999/xlink" width="400" height="699.0027921818906" viewBox="0, 0, 400,699.0027921818906"><g id="svgg"><path id="path0" d="M320.976 64.457 C 320.425 69.400,319.130 79.337,318.024 87.109 C 314.716 110.343,309.139 141.345,304.422 162.709 C 303.927 164.953,303.219 168.165,302.850 169.847 C 301.101 177.802,300.605 179.976,300.315 180.957 C 300.009 181.987,300.044 182.066,301.573 183.870 C 323.087 209.241,311.722 249.908,280.251 260.164 L 278.345 260.785 276.949 265.207 C 276.182 267.639,275.442 269.891,275.307 270.211 C 275.171 270.532,274.390 272.826,273.572 275.310 C 272.753 277.793,271.970 280.087,271.832 280.408 C 271.693 280.728,270.698 283.547,269.619 286.672 C 268.541 289.796,267.356 293.139,266.986 294.101 C 266.280 295.932,262.342 306.430,261.139 309.687 C 260.754 310.728,260.245 311.994,260.008 312.499 C 259.771 313.003,259.578 313.486,259.578 313.571 C 259.578 313.752,253.916 327.764,253.311 329.080 C 253.085 329.571,252.386 331.210,251.756 332.721 C 250.391 336.001,247.803 341.997,247.048 343.627 C 246.752 344.268,245.925 346.103,245.210 347.706 C 244.496 349.308,243.202 352.127,242.335 353.969 C 241.467 355.812,240.371 358.169,239.898 359.207 C 236.123 367.498,219.709 398.977,218.312 400.606 C 218.095 400.859,217.917 401.135,217.917 401.219 C 217.917 401.304,217.241 402.539,216.415 403.964 C 215.588 405.389,214.496 407.276,213.987 408.157 C 212.353 410.985,207.106 419.603,205.827 421.559 C 205.146 422.600,203.961 424.436,203.195 425.637 C 199.182 431.933,191.914 442.618,190.018 445.011 C 189.782 445.309,186.658 449.666,185.871 450.794 C 184.812 452.314,176.510 463.050,174.381 465.655 C 170.874 469.943,163.783 478.351,162.551 479.680 C 161.957 480.320,160.714 481.697,159.788 482.739 C 158.862 483.780,157.261 485.515,156.229 486.593 C 154.391 488.515,154.368 488.560,155.036 488.854 C 155.411 489.020,160.830 491.192,167.079 493.682 L 178.441 498.210 182.197 494.334 C 258.989 415.101,308.248 333.061,329.059 249.737 C 338.779 210.824,342.129 169.087,338.383 133.576 C 338.164 131.493,337.904 128.937,337.806 127.895 C 336.131 110.091,330.797 85.939,324.487 67.589 C 322.090 60.619,321.865 60.015,321.671 60.015 C 321.562 60.015,321.249 62.014,320.976 64.457 " stroke="none" fill="#3bb38b" fill-rule="evenodd"></path><path id="path1" d="M331.245 21.825 C 329.883 22.274,326.737 23.303,324.253 24.112 C 320.107 25.461,311.979 28.595,311.289 29.110 C 311.129 29.229,310.539 29.496,309.978 29.703 C 307.293 30.693,292.761 38.046,288.711 40.464 C 288.150 40.799,287.495 41.166,287.254 41.279 C 286.628 41.575,283.250 43.590,279.534 45.884 C 277.771 46.972,275.870 48.135,275.310 48.469 C 274.749 48.802,274.159 49.184,273.999 49.318 C 273.838 49.452,272.724 50.201,271.522 50.984 C 269.333 52.410,263.756 56.217,262.455 57.174 C 262.074 57.454,261.042 58.202,260.160 58.835 C 257.410 60.813,256.009 61.848,253.751 63.572 C 252.549 64.489,251.304 65.434,250.983 65.672 C 250.441 66.075,242.084 72.853,240.784 73.944 C 240.462 74.214,239.413 75.091,238.453 75.892 C 237.493 76.693,236.642 77.424,236.562 77.516 C 236.482 77.608,235.630 78.383,234.669 79.238 C 229.887 83.489,228.019 85.205,224.669 88.420 C 216.128 96.616,209.900 103.109,202.444 111.593 C 199.480 114.965,198.278 116.365,196.941 118.002 C 196.380 118.688,195.257 120.048,194.445 121.023 C 192.392 123.490,189.045 127.642,188.347 128.588 C 188.026 129.022,186.748 130.715,185.505 132.351 C 182.664 136.091,180.105 139.585,179.198 140.962 C 178.814 141.546,178.420 142.090,178.324 142.170 C 178.077 142.377,177.382 143.394,173.541 149.162 C 171.674 151.966,169.903 154.588,169.605 154.989 C 169.306 155.390,168.891 156.045,168.683 156.446 C 168.474 156.846,168.209 157.240,168.095 157.320 C 167.980 157.400,167.603 157.990,167.257 158.631 C 166.910 159.272,165.780 161.107,164.745 162.709 C 163.710 164.312,162.532 166.213,162.128 166.934 C 161.724 167.655,161.230 168.499,161.032 168.810 C 160.177 170.147,158.860 172.357,158.678 172.760 C 158.569 173.001,158.234 173.602,157.933 174.096 C 157.632 174.590,156.308 176.950,154.992 179.340 C 153.676 181.730,152.199 184.406,151.710 185.288 C 150.507 187.457,142.852 202.717,141.615 205.412 C 140.338 208.196,138.980 211.144,137.836 213.621 C 137.336 214.703,136.926 215.671,136.926 215.774 C 136.926 215.876,136.672 216.498,136.361 217.157 C 135.378 219.241,133.790 222.987,133.571 223.744 C 133.454 224.144,133.262 224.603,133.142 224.763 C 133.023 224.924,132.636 225.840,132.282 226.799 C 131.928 227.759,131.536 228.676,131.411 228.838 C 131.285 229.001,130.979 229.723,130.731 230.444 C 130.483 231.165,129.668 233.328,128.920 235.251 C 128.172 237.174,126.978 240.386,126.266 242.389 C 125.554 244.392,124.855 246.293,124.713 246.613 C 124.571 246.934,123.774 249.228,122.942 251.712 C 122.110 254.195,121.325 256.489,121.197 256.810 C 120.869 257.628,119.089 263.221,117.998 266.861 C 117.494 268.543,116.773 270.903,116.396 272.105 C 116.020 273.307,115.232 276.060,114.646 278.223 C 114.060 280.386,113.332 283.008,113.029 284.050 C 112.268 286.667,111.360 290.144,110.673 293.073 C 110.007 295.908,110.221 295.699,106.949 296.711 C 105.571 297.137,104.181 297.601,103.860 297.742 C 103.540 297.883,101.311 298.616,98.908 299.371 C 96.504 300.127,91.653 301.692,88.128 302.849 C 84.603 304.007,77.786 306.226,72.979 307.782 C 61.207 311.591,59.008 312.377,56.922 313.519 C 50.268 317.161,45.162 323.366,43.234 330.153 C 42.995 330.994,42.683 331.945,42.539 332.265 C 42.396 332.586,42.069 333.634,41.813 334.596 C 41.557 335.557,41.232 336.606,41.091 336.926 C 40.847 337.482,39.974 340.255,37.284 349.017 C 36.620 351.180,35.967 353.212,35.833 353.532 C 35.483 354.371,34.124 358.723,33.468 361.107 C 33.159 362.229,32.784 363.409,32.633 363.729 C 32.482 364.050,32.034 365.426,31.637 366.788 C 31.239 368.150,30.178 371.559,29.279 374.363 C 28.380 377.167,27.319 380.575,26.921 381.937 C 26.524 383.299,26.079 384.676,25.932 384.996 C 25.785 385.317,25.390 386.562,25.055 387.764 C 24.719 388.966,24.328 390.211,24.185 390.532 C 24.043 390.852,23.841 391.442,23.736 391.843 C 23.632 392.243,22.773 394.996,21.827 397.961 C 16.982 413.149,18.552 422.804,27.292 431.562 C 34.689 438.974,41.349 440.606,57.393 438.935 C 61.318 438.526,68.529 437.786,73.416 437.290 C 78.303 436.794,84.071 436.202,86.235 435.975 C 88.398 435.747,90.568 435.557,91.058 435.552 L 91.949 435.543 91.822 450.542 C 91.752 458.791,91.850 471.672,92.040 479.165 L 92.385 492.790 90.196 498.908 C 88.992 502.272,87.535 506.271,86.959 507.793 C 85.076 512.767,84.768 513.727,84.993 513.933 C 85.115 514.045,86.460 514.618,87.983 515.207 C 89.505 515.796,91.012 516.397,91.333 516.543 C 91.653 516.689,92.637 517.080,93.518 517.412 C 97.413 518.880,97.309 518.740,96.450 521.365 C 95.987 522.780,95.161 525.592,94.531 527.895 C 91.764 538.006,91.195 540.131,90.280 543.773 C 89.797 545.696,89.071 548.580,88.667 550.182 C 87.767 553.746,86.411 559.481,85.636 563.001 C 85.318 564.443,84.864 566.409,84.627 567.371 C 84.198 569.111,83.320 573.242,81.965 579.898 C 81.574 581.821,81.195 583.656,81.123 583.977 C 79.954 589.184,77.076 605.354,75.314 616.606 C 74.913 619.170,74.514 621.633,74.429 622.080 C 74.115 623.729,72.789 633.711,71.964 640.641 C 71.497 644.567,70.980 648.893,70.816 650.255 C 69.971 657.273,68.499 676.217,68.479 680.338 C 68.460 684.175,69.086 685.198,71.595 685.426 C 73.657 685.614,74.032 685.270,80.554 677.224 C 81.675 675.840,82.855 674.404,83.176 674.034 C 83.496 673.663,84.020 673.020,84.341 672.604 C 86.491 669.815,87.369 668.688,88.222 667.628 C 90.233 665.125,93.636 660.719,94.538 659.450 C 94.858 658.999,95.397 658.286,95.735 657.866 C 97.046 656.235,100.246 651.914,100.514 651.412 C 100.670 651.121,100.964 650.709,101.167 650.496 C 101.508 650.140,103.661 647.242,104.519 645.986 C 104.721 645.690,105.539 644.530,106.336 643.409 C 107.134 642.287,107.952 641.122,108.154 640.819 C 108.356 640.516,108.784 639.926,109.104 639.508 C 109.848 638.537,110.800 637.181,111.951 635.452 C 112.452 634.701,112.941 634.020,113.037 633.940 C 113.134 633.860,113.527 633.270,113.911 632.629 C 114.295 631.988,114.690 631.398,114.788 631.318 C 114.887 631.238,116.001 629.599,117.265 627.677 C 118.528 625.754,119.671 624.050,119.804 623.889 C 119.937 623.729,120.807 622.418,121.739 620.976 C 122.670 619.534,124.070 617.371,124.850 616.169 C 125.629 614.967,127.357 612.280,128.688 610.197 C 130.020 608.114,131.237 606.213,131.392 605.972 C 133.023 603.454,134.013 601.847,134.013 601.718 C 134.013 601.632,134.384 601.014,134.838 600.344 C 136.136 598.428,143.513 586.130,144.089 584.921 C 144.375 584.321,144.716 583.831,144.846 583.831 C 144.977 583.831,145.084 583.710,145.084 583.563 C 145.084 583.415,145.739 582.159,146.540 580.772 C 147.342 579.385,147.997 578.140,147.997 578.006 C 147.997 577.871,148.104 577.718,148.234 577.664 C 148.443 577.579,151.411 572.376,152.610 569.993 C 152.852 569.512,153.126 569.053,153.219 568.973 C 153.311 568.893,153.704 568.172,154.092 567.371 C 154.479 566.570,154.883 565.849,154.988 565.768 C 155.094 565.688,155.376 565.229,155.616 564.749 C 156.496 562.983,159.743 556.874,159.951 556.591 C 160.070 556.431,161.316 554.006,162.720 551.202 C 164.124 548.398,165.309 546.059,165.352 546.006 C 165.395 545.952,165.866 546.110,166.400 546.357 C 166.934 546.603,168.092 547.077,168.973 547.409 C 169.854 547.741,170.838 548.132,171.158 548.278 C 177.368 551.097,178.163 551.145,178.880 548.751 C 179.068 548.122,179.538 546.917,179.924 546.073 C 180.310 545.229,180.626 544.459,180.626 544.361 C 180.626 544.142,183.850 536.652,185.142 533.870 C 185.664 532.747,186.184 531.522,186.299 531.148 C 186.414 530.775,189.937 527.027,194.128 522.821 C 202.967 513.951,208.777 507.940,216.023 500.171 C 220.565 495.302,225.408 489.956,225.953 489.211 C 226.302 488.734,226.566 488.920,227.968 490.634 C 228.288 491.026,229.272 492.192,230.153 493.227 C 231.034 494.261,232.017 495.423,232.338 495.810 C 232.658 496.197,233.196 496.790,233.534 497.128 C 233.871 497.466,234.907 498.660,235.836 499.782 C 236.766 500.903,238.279 502.673,239.200 503.714 C 240.121 504.756,241.429 506.264,242.107 507.065 C 243.860 509.137,246.267 511.912,246.633 512.284 C 246.804 512.458,248.694 514.632,250.833 517.116 C 255.541 522.582,259.310 526.147,260.381 526.147 C 260.554 526.147,260.738 526.266,260.791 526.411 C 260.845 526.556,261.873 527.134,263.077 527.696 C 275.637 533.557,290.421 529.722,298.407 518.531 C 299.787 516.597,300.311 515.609,303.562 508.813 C 304.558 506.730,306.463 502.797,307.795 500.073 C 309.127 497.349,311.260 492.957,312.536 490.313 C 315.563 484.042,321.698 471.351,325.423 463.656 C 326.509 461.413,328.931 456.431,330.806 452.586 C 338.787 436.214,339.006 428.688,331.859 416.460 C 331.365 415.615,330.264 413.617,328.368 410.124 C 327.867 409.202,327.056 407.709,326.565 406.805 C 326.074 405.901,325.327 404.492,324.905 403.673 C 324.483 402.855,324.063 402.119,323.973 402.039 C 323.883 401.959,323.441 401.173,322.992 400.291 C 322.544 399.410,321.735 397.902,321.196 396.941 C 320.657 395.980,319.598 394.013,318.843 392.571 C 318.088 391.129,317.388 389.883,317.287 389.803 C 317.186 389.723,316.931 389.265,316.720 388.786 C 316.508 388.306,314.922 385.357,313.194 382.231 C 311.467 379.105,309.853 376.158,309.609 375.682 C 309.129 374.744,309.072 374.907,311.256 371.012 C 311.615 370.371,312.576 368.602,313.391 367.079 C 314.206 365.557,315.615 362.935,316.521 361.253 C 320.300 354.241,327.608 339.173,331.076 331.245 C 332.302 328.441,333.493 325.754,333.723 325.273 C 333.952 324.792,334.396 323.744,334.710 322.942 C 335.024 322.141,335.887 320.044,336.628 318.281 C 338.012 314.991,339.222 311.916,341.042 307.065 C 341.614 305.543,342.197 304.035,342.338 303.714 C 342.825 302.607,346.686 291.558,346.686 291.271 C 346.686 291.113,346.881 290.571,347.120 290.066 C 347.359 289.561,347.873 288.099,348.263 286.817 C 348.653 285.535,349.382 283.176,349.883 281.573 C 352.390 273.555,355.548 262.262,356.889 256.519 C 357.188 255.237,357.769 252.811,358.180 251.129 C 359.699 244.907,362.016 233.241,363.126 226.220 C 363.506 223.816,363.959 221.063,364.132 220.102 C 364.886 215.913,366.316 203.836,366.943 196.358 C 367.206 193.234,367.540 189.301,367.686 187.618 C 368.498 178.261,368.290 146.382,367.357 137.072 C 367.196 135.470,366.800 131.275,366.476 127.749 C 366.152 124.224,365.831 121.143,365.761 120.903 C 365.691 120.663,365.369 118.395,365.046 115.865 C 364.107 108.532,361.849 96.182,359.974 88.128 C 358.204 80.529,356.125 72.398,355.727 71.522 C 355.581 71.202,355.248 70.153,354.987 69.192 C 353.652 64.279,348.751 50.013,347.280 46.759 C 347.135 46.438,346.470 44.865,345.801 43.263 C 342.459 35.249,334.992 20.967,334.159 20.994 C 333.918 21.002,332.607 21.376,331.245 21.825 M320.997 58.267 C 321.234 58.988,321.532 59.647,321.660 59.731 C 322.196 60.085,325.812 70.575,328.285 78.951 C 330.922 87.881,333.811 100.344,335.173 108.667 C 335.422 110.189,335.754 112.025,335.911 112.746 C 340.050 131.775,341.147 175.837,338.098 200.583 C 331.073 257.580,314.730 306.094,283.972 361.253 C 260.502 403.341,224.931 450.330,186.272 490.313 C 184.490 492.156,182.078 494.680,180.912 495.921 C 179.745 497.163,178.605 498.179,178.378 498.179 C 177.819 498.179,155.363 489.233,154.261 488.572 C 153.398 488.054,138.001 481.865,137.575 481.865 C 137.454 481.865,136.898 481.621,136.339 481.323 C 135.781 481.025,134.996 480.682,134.596 480.562 C 134.195 480.442,133.474 480.167,132.993 479.952 C 132.513 479.737,130.546 478.953,128.623 478.210 C 126.701 477.467,124.734 476.687,124.253 476.476 C 123.773 476.265,122.770 475.871,122.025 475.600 L 120.670 475.107 120.453 470.547 C 120.026 461.611,120.685 426.902,121.490 415.878 C 121.666 413.474,122.067 407.837,122.382 403.350 C 122.697 398.864,123.019 394.603,123.098 393.882 C 123.176 393.161,123.569 389.228,123.971 385.142 C 125.463 369.970,127.484 355.011,129.797 342.025 C 131.189 334.211,131.398 333.070,132.255 328.623 C 134.227 318.385,137.811 302.915,140.522 292.935 C 140.914 291.493,141.583 289.002,142.008 287.400 C 142.434 285.798,142.899 284.224,143.043 283.904 C 143.187 283.583,143.629 282.141,144.026 280.699 C 145.558 275.128,150.642 259.271,151.499 257.393 C 151.645 257.072,152.367 255.106,153.103 253.023 C 153.840 250.940,154.614 248.842,154.823 248.361 C 155.032 247.881,155.444 246.766,155.739 245.885 C 156.033 245.004,156.367 244.151,156.480 243.991 C 156.592 243.831,157.015 242.782,157.419 241.661 C 158.327 239.143,159.468 236.323,160.400 234.296 C 160.789 233.451,161.107 232.684,161.107 232.593 C 161.107 232.501,161.292 232.013,161.519 231.508 C 161.746 231.003,162.478 229.345,163.146 227.822 C 163.814 226.300,164.599 224.530,164.891 223.889 C 165.183 223.248,165.750 222.003,166.151 221.122 C 168.295 216.406,169.009 214.911,171.922 209.031 C 173.669 205.506,175.795 201.311,176.646 199.709 C 177.498 198.106,178.571 196.074,179.032 195.193 C 179.492 194.312,179.941 193.525,180.029 193.445 C 180.118 193.365,180.490 192.709,180.856 191.988 C 181.223 191.267,181.650 190.481,181.806 190.240 C 182.374 189.367,184.999 184.814,185.755 183.394 C 186.181 182.593,186.620 181.872,186.731 181.792 C 186.842 181.712,187.018 181.449,187.123 181.209 C 187.228 180.969,187.905 179.854,188.629 178.733 C 189.353 177.611,190.276 176.103,190.682 175.382 C 191.428 174.056,191.956 173.233,195.630 167.676 C 197.645 164.629,204.187 155.253,204.890 154.406 C 205.089 154.166,205.575 153.511,205.969 152.950 C 206.363 152.389,206.790 151.799,206.917 151.639 C 207.045 151.479,207.999 150.233,209.037 148.871 C 211.398 145.773,214.064 142.395,216.260 139.719 C 217.192 138.583,218.167 137.393,218.426 137.072 C 219.314 135.978,224.380 130.083,225.447 128.902 C 226.032 128.255,227.626 126.485,228.988 124.970 C 239.020 113.810,256.417 97.763,268.463 88.558 C 270.226 87.211,271.799 86.005,271.959 85.878 C 273.176 84.910,277.070 82.066,278.650 80.991 C 279.709 80.269,280.735 79.541,280.929 79.371 C 281.123 79.202,282.855 78.030,284.778 76.768 C 286.701 75.505,288.339 74.386,288.420 74.279 C 288.500 74.173,288.893 73.917,289.294 73.711 C 289.694 73.505,291.071 72.657,292.353 71.828 C 296.002 69.466,299.219 67.574,305.754 63.946 C 309.992 61.593,309.925 61.628,314.269 59.489 C 315.995 58.639,317.866 57.689,318.427 57.378 C 319.935 56.540,320.493 56.733,320.997 58.267 M257.830 167.068 C 255.156 167.461,249.766 168.778,248.822 169.269 C 248.568 169.401,247.575 169.809,246.613 170.175 C 243.296 171.437,238.186 174.308,235.803 176.248 C 228.080 182.536,224.217 187.552,220.316 196.358 C 216.306 205.411,215.695 218.735,218.827 228.842 C 219.324 230.444,219.829 231.886,219.951 232.047 C 220.072 232.207,220.333 232.838,220.530 233.449 C 223.551 242.826,235.838 255.207,245.739 258.850 C 246.540 259.145,247.327 259.484,247.487 259.603 C 251.411 262.514,269.238 263.496,276.912 261.223 C 304.515 253.050,319.235 224.667,309.646 198.106 C 307.942 193.388,304.295 187.131,301.321 183.822 C 300.634 183.059,300.073 182.311,300.073 182.159 C 300.073 181.826,296.985 178.862,294.975 177.267 C 294.173 176.631,293.452 176.037,293.372 175.946 C 292.895 175.406,287.989 172.486,285.506 171.265 C 277.810 167.478,266.603 165.779,257.830 167.068 M102.976 328.640 C 102.817 328.897,102.454 330.870,101.236 338.092 C 101.181 338.412,100.865 340.444,100.533 342.607 C 100.201 344.771,99.804 347.130,99.651 347.851 C 99.498 348.572,99.102 351.326,98.770 353.969 C 98.438 356.613,98.035 359.497,97.873 360.379 C 97.499 362.417,96.321 372.681,95.382 382.083 C 94.411 391.806,94.456 391.288,93.879 399.413 L 93.372 406.546 86.672 407.191 C 82.986 407.545,76.038 408.239,71.231 408.732 C 62.577 409.620,48.382 411.046,48.036 411.062 C 47.845 411.071,48.661 407.907,49.349 405.972 C 49.576 405.331,50.306 403.037,50.970 400.874 C 51.634 398.711,52.357 396.417,52.576 395.776 C 52.796 395.135,53.518 392.840,54.182 390.677 C 54.846 388.514,55.633 386.023,55.932 385.142 C 56.231 384.261,57.018 381.770,57.682 379.607 C 58.346 377.444,59.066 375.149,59.282 374.508 C 59.498 373.867,60.287 371.377,61.035 368.973 C 61.784 366.570,62.640 363.882,62.938 363.001 C 63.236 362.119,63.955 359.825,64.536 357.902 C 65.116 355.980,65.834 353.685,66.132 352.804 C 66.429 351.923,67.220 349.432,67.890 347.269 C 70.440 339.030,70.558 338.744,71.522 338.456 C 72.003 338.312,72.658 338.085,72.979 337.951 C 73.299 337.817,76.511 336.762,80.117 335.606 C 92.861 331.523,98.332 329.741,98.908 329.487 C 100.737 328.679,103.279 328.150,102.976 328.640 M292.836 404.880 C 293.245 405.641,294.139 407.312,294.824 408.594 C 295.508 409.876,296.166 411.056,296.285 411.216 C 296.405 411.377,297.157 412.753,297.956 414.275 C 298.756 415.798,299.737 417.633,300.138 418.354 C 300.538 419.075,301.260 420.386,301.742 421.267 C 302.223 422.149,303.890 425.200,305.446 428.048 L 308.275 433.226 306.622 436.642 C 305.713 438.521,304.143 441.763,303.133 443.846 C 300.386 449.513,296.746 457.047,294.618 461.471 C 292.575 465.718,289.199 472.677,285.361 480.554 C 282.970 485.461,281.162 489.210,277.318 497.232 C 276.223 499.516,275.282 501.384,275.225 501.384 C 275.168 501.384,274.152 500.237,272.968 498.835 C 270.518 495.935,269.586 494.866,268.755 494.001 C 268.434 493.668,267.385 492.461,266.424 491.320 C 264.813 489.406,256.516 479.758,255.036 478.077 C 252.658 475.377,251.402 473.925,250.255 472.552 C 249.534 471.689,248.740 470.777,248.491 470.525 C 248.243 470.272,247.421 469.328,246.666 468.426 L 245.292 466.787 248.284 463.138 C 249.929 461.131,252.061 458.481,253.023 457.250 C 253.984 456.018,254.929 454.839,255.124 454.631 C 255.318 454.422,256.161 453.359,256.997 452.268 C 257.834 451.177,258.683 450.081,258.884 449.832 C 259.716 448.806,262.970 444.603,263.511 443.857 C 264.114 443.023,266.381 439.987,266.782 439.476 C 267.414 438.668,271.143 433.606,271.522 433.041 C 271.763 432.682,272.746 431.317,273.707 430.007 C 274.669 428.697,275.652 427.328,275.892 426.965 C 276.133 426.602,276.560 425.990,276.843 425.607 C 278.697 423.087,283.696 415.763,287.407 410.129 C 292.374 402.589,291.868 403.079,292.836 404.880 " stroke="none" fill="#14345c" fill-rule="evenodd"></path><path id="path2" d="M339.476 150.473 C 339.479 151.114,339.539 151.342,339.609 150.980 C 339.679 150.617,339.676 150.093,339.603 149.815 C 339.530 149.536,339.473 149.832,339.476 150.473 M339.804 160.524 C 339.804 162.367,339.852 163.121,339.909 162.200 C 339.967 161.278,339.967 159.771,339.909 158.849 C 339.852 157.928,339.804 158.682,339.804 160.524 M339.796 168.973 C 339.796 170.335,339.846 170.892,339.907 170.211 C 339.969 169.530,339.969 168.416,339.907 167.735 C 339.846 167.054,339.796 167.611,339.796 168.973 M312.704 214.567 C 312.703 216.009,312.752 216.635,312.813 215.959 C 312.874 215.283,312.875 214.103,312.815 213.337 C 312.754 212.571,312.704 213.125,312.704 214.567 M190.950 485.142 L 190.095 486.089 191.042 485.233 C 191.924 484.436,192.122 484.195,191.897 484.195 C 191.847 484.195,191.421 484.621,190.950 485.142 " stroke="none" fill="#2c8376" fill-rule="evenodd"></path><path id="path3" d="M339.482 147.123 C 339.482 147.844,339.539 148.139,339.608 147.779 C 339.678 147.418,339.678 146.828,339.608 146.468 C 339.539 146.107,339.482 146.402,339.482 147.123 M339.768 153.678 C 339.771 154.319,339.830 154.547,339.900 154.185 C 339.970 153.822,339.967 153.298,339.894 153.019 C 339.821 152.741,339.764 153.037,339.768 153.678 M339.762 175.091 C 339.762 175.652,339.822 175.881,339.895 175.601 C 339.968 175.320,339.968 174.862,339.895 174.581 C 339.822 174.301,339.762 174.530,339.762 175.091 M180.176 496.504 L 179.024 497.742 180.262 496.591 C 180.943 495.957,181.500 495.400,181.500 495.352 C 181.500 495.132,181.247 495.353,180.176 496.504 " stroke="none" fill="#1b4f64" fill-rule="evenodd"></path><path id="path4" d="M339.781 172.760 C 339.781 173.642,339.836 174.002,339.903 173.562 C 339.970 173.121,339.970 172.400,339.903 171.959 C 339.836 171.519,339.781 171.879,339.781 172.760 " stroke="none" fill="#22676d" fill-rule="evenodd"></path></g></svg>