<svg xmlns="http://www.w3.org/2000/svg" viewBox="0 0 660 355"><path d="M 568 265 L 567 327 L 626 327 L 626 318 L 578 317 L 579 301 L 624 300 L 624 291 L 579 291 L 578 276 L 626 275 L 626 265 Z M 439 268 L 435 275 L 435 291 L 440 298 L 447 301 L 487 301 L 489 315 L 486 318 L 435 318 L 435 327 L 491 327 L 498 322 L 500 301 L 494 293 L 449 291 L 446 288 L 448 275 L 499 275 L 498 265 L 446 265 Z M 308 265 L 308 327 L 369 327 L 369 318 L 319 317 L 319 266 Z M 161 327 L 174 326 L 202 276 L 230 327 L 242 326 L 209 266 L 196 265 Z M 31 266 L 66 327 L 80 326 L 113 265 L 101 266 L 72 316 L 44 266 Z M 296 66 L 333 114 L 371 67 Z M 173 22 L 327 214 L 327 143 L 276 81 Z M 493 21 L 390 81 L 340 143 L 340 214 Z" fill="currentColor" fill-rule="evenodd"/></svg>