<svg id="svg" version="1.1" xmlns="http://www.w3.org/2000/svg" width="400" height="149.3497280681012" viewBox="0, 0, 400,149.3497280681012">
  <g id="svgg">
    <!-- Path0 (antes verde) ahora blanco -->
    <path id="path0" d="M75.200 2.662 C 70.812 3.724,65.907 7.735,61.230 14.083 C 60.555 15.000,59.942 15.825,59.868 15.917 C 59.046 16.936,54.453 24.338,52.887 27.167 C 52.608 27.671,51.182 30.183,49.718 32.750 C 48.254 35.317,46.811 37.904,46.511 38.500 C 46.212 39.096,45.909 39.658,45.840 39.750 C 45.691 39.945,43.867 43.390,43.016 45.083 C 42.693 45.725,42.389 46.288,42.340 46.333 C 42.224 46.441,39.573 51.778,38.614 53.833 C 38.208 54.704,37.566 56.077,37.188 56.885 C 36.809 57.692,36.500 58.384,36.500 58.422 C 36.500 58.459,36.321 58.886,36.102 59.370 C 35.713 60.231,35.184 61.417,34.745 62.417 C 34.624 62.692,34.289 63.479,34.000 64.167 C 33.711 64.854,33.376 65.642,33.256 65.917 C 33.136 66.192,32.983 66.604,32.917 66.833 C 32.850 67.063,32.696 67.475,32.574 67.750 C 32.231 68.521,30.998 71.523,30.795 72.083 C 29.632 75.284,28.259 76.709,25.833 77.230 C 17.613 78.996,9.619 82.320,7.075 85.031 C 2.476 89.931,4.122 97.917,10.059 99.516 C 11.338 99.860,15.123 99.678,19.373 99.069 C 20.886 98.851,20.926 99.121,19.910 102.667 C 19.149 105.322,19.229 105.032,18.829 106.583 C 15.286 120.304,14.769 127.169,16.954 131.496 C 17.709 132.989,19.221 134.588,20.417 135.157 C 20.875 135.374,21.380 135.616,21.539 135.693 C 21.699 135.770,22.524 135.833,23.373 135.833 C 26.232 135.833,28.255 134.632,29.869 131.977 C 30.764 130.505,31.112 129.345,32.586 122.917 C 33.805 117.602,35.870 109.885,37.493 104.583 C 40.273 95.497,39.937 95.931,44.667 95.327 C 48.963 94.779,57.323 93.466,60.000 92.920 C 62.795 92.349,65.103 92.120,65.784 92.345 C 66.780 92.673,66.858 93.079,67.017 98.750 C 67.139 103.100,67.377 107.917,67.576 110.083 C 67.777 112.265,68.194 116.121,68.253 116.333 C 68.291 116.471,68.437 117.371,68.579 118.333 C 69.843 126.944,72.681 133.882,76.283 137.167 C 78.824 139.484,80.191 140.070,83.083 140.078 C 84.864 140.083,87.000 139.564,87.000 139.126 C 87.000 139.057,87.103 139.000,87.230 139.000 C 87.636 139.000,89.775 136.782,90.371 135.743 C 92.364 132.268,92.304 128.719,90.181 124.583 C 88.882 122.054,88.235 119.995,87.666 116.583 C 86.994 112.557,86.995 112.566,86.499 105.417 C 86.239 101.669,86.036 91.552,86.204 90.745 C 86.374 89.935,86.738 89.678,87.888 89.557 C 97.183 88.581,97.874 73.746,88.705 72.007 C 85.675 71.433,85.755 72.583,87.577 55.75 C 90.149 31.984,90.691 21.043,89.644 14.000 C 88.519 6.434,81.708 1.087,75.200 2.662 M155.277 15.607 C 155.219 15.961,155.057 17.750,154.916 19.583 C 154.776 21.417,154.590 23.367,154.503 23.917 C 154.415 24.467,154.261 25.742,154.161 26.750 C 154.061 27.758,153.909 28.996,153.824 29.500 C 153.740 30.004,153.518 31.504,153.333 32.833 C 152.848 36.306,152.378 39.177,152.278 39.277 C 152.231 39.325,152.565 39.825,153.020 40.390 C 157.049 45.387,155.207 53.072,149.412 55.442 C 148.761 55.709,148.637 55.840,148.492 56.417 C 148.302 57.177,148.017 58.201,147.496 60.000 C 146.475 63.523,143.706 71.733,143.075 73.109 C 142.942 73.397,142.831 73.697,142.828 73.775 C 142.825 73.853,142.677 74.217,142.500 74.583 C 142.323 74.950,142.175 75.311,142.172 75.386 C 142.169 75.460,141.979 75.931,141.750 76.432 C 141.521 76.933,141.333 77.371,141.333 77.405 C 141.333 77.439,141.033 78.110,140.667 78.897 C 140.300 79.683,140.000 80.376,140.000 80.436 C 140.000 80.992,135.558 89.273,133.393 92.754 C 131.813 95.293,128.141 100.485,127.324 101.333 C 127.192 101.471,126.878 101.858,126.627 102.195 L 126.171 102.806 128.663 103.638 L 131.154 104.471 131.702 103.852 C 146.453 87.183,155.985 68.982,159.073 51.583 C 160.249 44.958,160.488 34.866,159.581 30.155 C 159.550 29.995,159.475 29.500,159.414 29.057 C 158.927 25.511,157.727 20.930,156.300 17.167 C 155.429 14.871,155.404 14.833,155.277 15.607 M70.488 29.006 C 69.916 32.773,68.637 45.103,68.000 52.971 C 67.820 55.201,67.635 57.339,67.589 57.721 C 67.474 58.689,67.193 63.426,67.008 67.523 C 66.834 71.396,66.673 72.074,65.890 72.224 C 62.410 72.890,50.386 73.474,49.536 73.019 C 49.012 72.739,49.066 72.461,50.073 70.250 C 50.199 69.975,50.450 69.412,50.631 69.000 C 51.137 67.848,52.783 64.292,53.755 62.250 C 54.235 61.242,54.946 59.742,55.335 58.917 C 55.724 58.092,56.716 56.029,57.541 54.333 C 58.365 52.637,59.565 50.163,60.208 48.833 C 63.668 41.671,70.547 27.825,70.612 27.890 C 70.634 27.912,70.578 28.414,70.488 29.006 " stroke="none" fill="#FFFFFF" fill-rule="evenodd"/>
    
    <!-- Path1 (antes azul) ahora blanco -->
    <path id="path1" d="M155.583 7.479 C 154.758 7.819,153.446 8.419,152.667 8.812 C 151.317 9.493,150.860 9.746,149.625 10.495 C 149.327 10.676,148.858 10.949,148.583 11.102 C 148.308 11.255,148.046 11.429,148.000 11.488 C 147.954 11.548,147.392 11.940,146.750 12.358 C 143.896 14.222,140.955 16.699,137.583 20.078 C 134.351 23.317,134.079 23.627,130.616 28.002 C 130.506 28.141,130.007 28.853,129.506 29.585 C 129.005 30.318,128.535 30.992,128.462 31.083 C 128.221 31.384,127.548 32.442,127.069 33.270 C 126.811 33.717,126.555 34.121,126.501 34.167 C 125.924 34.654,122.957 40.542,120.748 45.583 C 119.944 47.419,118.575 51.308,117.522 54.75 C 116.979 56.524,115.710 61.707,115.472 63.120 C 115.289 64.211,115.207 64.395,114.839 64.543 C 114.607 64.637,114.180 64.815,113.891 64.940 C 113.603 65.065,113.314 65.167,113.250 65.167 C 113.186 65.167,112.897 65.275,112.609 65.408 C 112.124 65.630,108.322 67.090,106.167 67.882 C 103.546 68.844,102.617 70.002,101.755 73.378 C 100.723 77.425,99.210 83.228,98.661 85.250 C 96.963 91.500,99.902 94.934,106.083 93.921 C 107.000 93.771,108.931 93.478,110.375 93.270 L 113.000 92.892 113.000 93.792 C 113.000 94.287,113.072 95.568,113.160 96.638 C 113.247 97.708,113.398 99.858,113.493 101.417 C 113.679 104.442,113.699 104.277,112.833 107.083 C 112.310 108.782,112.270 108.681,113.643 109.138 C 115.061 109.609,114.989 109.213,114.254 112.500 C 113.716 114.904,113.259 117.322,112.835 120.000 C 112.654 121.146,112.476 122.233,112.439 122.417 C 112.376 122.727,112.218 123.924,111.834 127.000 C 111.656 128.419,111.289 132.643,111.000 136.583 C 110.892 138.050,110.829 140.111,110.860 141.163 L 110.917 143.076 111.391 143.243 C 111.856 143.406,112.332 143.044,113.139 141.917 C 113.204 141.825,113.687 141.150,114.211 140.417 C 114.735 139.683,115.221 139.008,115.290 138.915 C 115.717 138.348,117.833 135.156,117.833 135.079 C 117.833 135.028,117.911 134.895,118.006 134.785 C 118.313 134.427,120.000 131.650,120.000 131.503 C 120.000 131.425,120.062 131.336,120.139 131.306 C 120.215 131.275,120.556 130.762,120.896 130.167 C 121.235 129.571,121.586 128.971,121.674 128.833 C 122.660 127.301,127.632 117.656,128.568 115.461 C 129.058 114.310,129.333 114.164,130.083 114.655 C 130.374 114.845,131.522 115.200,131.598 115.124 C 131.638 115.084,132.008 114.125,132.419 112.992 C 132.831 111.860,133.338 110.743,133.547 110.509 C 133.755 110.275,134.336 109.632,134.838 109.081 C 136.593 107.152,137.877 105.666,139.186 104.048 C 140.826 102.022,140.469 102.013,142.511 104.130 C 147.635 109.444,147.169 109.008,148.294 109.542 C 149.550 110.138,151.942 110.086,153.231 109.434 C 154.946 108.566,155.552 107.720,157.003 104.167 C 157.470 103.021,157.953 101.858,158.076 101.583 C 158.198 101.308,158.449 100.746,158.634 100.333 C 159.087 99.318,160.985 94.706,161.205 94.083 C 161.302 93.808,161.440 93.507,161.512 93.415 C 162.611 91.988,162.689 88.904,161.671 87.167 C 160.530 85.220,159.397 83.405,159.295 83.361 C 159.225 83.331,159.167 83.242,159.167 83.164 C 159.167 83.024,158.169 81.327,157.993 81.167 C 157.942 81.121,157.686 80.708,157.424 80.250 C 157.161 79.792,156.809 79.238,156.640 79.019 C 156.216 78.470,156.246 78.271,156.977 76.750 C 157.541 75.577,158.217 74.117,158.674 73.083 C 160.182 69.674,162.067 64.265,163.155 60.221 C 164.109 56.678,164.812 53.196,165.253 49.833 C 165.391 48.779,165.597 47.279,165.710 46.500 C 165.994 44.554,165.990 33.940,165.705 31.917 C 165.589 31.092,165.384 29.629,165.250 28.667 C 164.180 21.007,161.405 12.719,158.290 7.875 C 157.510 6.661,157.553 6.668,155.583 7.479 M156.169 16.500 C 166.160 42.675,157.683 74.038,132.897 102.601 C 132.428 103.141,131.853 103.808,131.619 104.083 L 131.195 104.583 128.722 103.762 C 127.363 103.310,126.175 102.853,126.083 102.747 C 125.992 102.641,125.579 102.464,125.167 102.353 C 124.754 102.242,124.267 102.084,124.083 102.002 C 123.900 101.920,122.787 101.536,121.611 101.149 C 118.976 100.284,119.231 100.957,119.019 94.313 C 118.671 83.345,119.408 73.247,121.159 65.000 C 121.617 62.843,122.174 60.286,122.231 60.083 C 122.256 59.992,122.369 59.579,122.481 59.167 C 123.757 54.464,125.414 49.698,127.115 45.833 C 127.557 44.831,129.896 40.088,129.992 40.000 C 130.042 39.954,130.215 39.654,130.377 39.333 C 130.538 39.012,130.819 38.525,131.000 38.250 C 131.181 37.975,131.382 37.637,131.447 37.500 C 131.650 37.068,133.210 34.624,133.911 33.640 C 134.281 33.122,134.696 32.532,134.833 32.330 C 134.971 32.128,135.271 31.720,135.500 31.424 C 135.729 31.127,136.104 30.636,136.333 30.333 C 136.563 30.029,136.836 29.693,136.942 29.585 C 137.048 29.477,137.534 28.908,138.023 28.320 C 138.512 27.731,139.063 27.071,139.247 26.852 C 139.894 26.086,143.758 22.281,144.664 21.519 C 145.167 21.096,145.729 20.611,145.914 20.440 C 147.266 19.193,151.192 16.462,153.630 15.073 L 154.916 14.340 155.272 14.712 C 155.468 14.916,155.871 15.721,156.169 16.500 M354.250 23.272 C 352.365 23.744,349.000 26.945,349.000 28.266 C 349.000 28.305,348.859 28.655,348.687 29.043 C 348.340 29.827,346.967 33.708,346.668 34.750 C 346.563 35.117,346.414 35.567,346.337 35.750 C 346.260 35.933,345.997 36.758,345.754 37.583 C 345.510 38.408,345.209 39.421,345.086 39.833 C 344.540 41.652,343.757 45.001,343.236 47.750 C 342.601 51.095,342.350 51.300,337.833 52.157 C 335.521 52.596,334.531 52.792,334.000 52.918 C 333.954 52.928,333.317 53.072,332.583 53.237 C 325.985 54.718,324.092 61.337,329.318 64.651 C 331.384 65.961,333.164 66.093,337.948 65.290 L 339.313 65.060 339.239 65.489 C 339.161 65.943,338.853 67.815,338.318 71.083 C 335.761 86.719,334.027 100.144,333.097 111.500 C 332.631 117.185,332.621 123.888,333.073 126.500 C 334.062 132.212,335.938 135.629,339.634 138.449 C 340.315 138.968,341.667 139.667,341.991 139.667 C 342.143 139.667,342.360 139.760,342.475 139.875 C 342.621 140.021,343.362 140.083,344.967 140.083 C 347.294 140.083,347.358 140.071,348.990 139.280 C 349.695 138.939,351.073 137.451,351.488 136.583 C 351.707 136.125,351.949 135.620,352.026 135.461 C 352.741 133.988,351.888 130.485,350.250 128.159 C 348.378 125.502,348.377 121.178,350.243 104.417 C 350.901 98.514,352.507 86.137,352.744 85.149 C 352.797 84.929,352.946 83.962,353.076 83.000 C 353.830 77.414,355.931 65.064,356.404 63.436 C 356.840 61.934,357.285 61.687,360.333 61.249 C 361.387 61.098,362.813 60.870,363.500 60.742 C 367.663 59.970,372.322 59.707,375.336 60.074 C 379.626 60.596,382.569 55.615,380.391 51.520 C 378.390 47.755,372.870 46.414,364.131 47.570 C 362.852 47.740,361.580 47.823,361.241 47.759 C 360.568 47.633,360.574 47.697,361.083 45.917 C 361.815 43.359,363.698 35.330,363.921 33.817 C 364.572 29.392,362.790 25.458,359.390 23.813 C 358.262 23.268,355.449 22.971,354.250 23.272 M143.500 37.019 C 134.695 38.429,133.109 51.467,141.272 55.333 C 143.312 56.298,147.654 56.602,148.572 55.843 C 148.670 55.762,149.254 55.434,149.871 55.113 C 155.964 51.939,156.949 44.023,151.854 39.167 C 149.871 37.277,146.808 36.489,143.500 37.019 M280.592 56.582 C 279.956 56.814,279.393 57.059,279.342 57.127 C 279.292 57.195,278.925 57.472,278.527 57.742 C 276.578 59.064,274.828 62.076,273.581 66.250 C 271.690 72.581,271.366 73.046,270.460 70.738 C 270.313 70.365,269.962 69.668,269.680 69.189 C 269.398 68.710,269.167 68.282,269.167 68.237 C 269.167 67.776,266.423 64.168,265.438 63.334 C 264.240 62.320,263.589 61.899,262.417 61.381 C 259.788 60.221,254.990 60.201,252.842 61.342 C 252.700 61.418,252.096 61.717,251.500 62.007 C 244.523 65.401,239.779 74.516,237.666 88.583 C 236.911 93.610,237.010 102.806,237.831 103.917 C 237.899 104.008,238.007 104.306,238.073 104.578 C 238.507 106.390,240.256 108.878,242.166 110.401 C 245.052 112.702,250.121 112.923,253.717 110.903 C 254.102 110.687,254.642 110.385,254.917 110.232 C 255.192 110.079,255.454 109.901,255.500 109.838 C 255.546 109.774,255.710 109.652,255.865 109.568 C 256.021 109.483,258.329 107.248,260.995 104.600 C 263.661 101.952,265.889 99.834,265.948 99.892 C 266.006 99.951,265.963 100.505,265.853 101.124 C 264.304 109.793,264.527 121.763,266.300 125.048 C 269.640 131.239,277.951 130.958,280.029 124.583 C 280.119 124.308,280.259 122.958,280.340 121.583 C 280.872 112.551,282.573 101.139,285.165 89.208 C 286.252 84.206,286.423 83.481,287.489 79.333 C 288.413 75.736,288.799 74.321,289.325 72.583 C 291.266 66.179,291.459 63.344,290.145 60.563 C 289.436 59.062,287.739 57.330,286.500 56.841 C 286.179 56.714,285.812 56.530,285.683 56.431 C 285.162 56.029,281.842 56.128,280.592 56.582 M377.833 69.174 C 374.847 69.652,371.133 71.083,369.090 72.541 C 365.342 75.217,361.965 78.731,360.242 81.750 C 359.980 82.208,359.725 82.621,359.675 82.667 C 359.482 82.842,357.333 87.048,357.333 87.249 C 357.333 87.343,356.470 89.669,356.157 90.417 C 353.816 96.018,353.818 106.407,356.161 111.750 C 359.112 118.481,363.653 123.067,369.453 125.176 C 370.258 125.469,371.067 125.774,371.250 125.854 C 373.449 126.815,380.724 127.157,383.702 126.440 C 390.911 124.702,395.406 117.045,391.550 113.071 C 389.493 110.952,386.409 111.130,383.744 113.522 C 378.410 118.310,370.410 114.727,369.268 107.040 L 369.162 106.330 370.123 106.457 C 374.600 107.047,379.361 106.103,381.727 104.155 C 381.831 104.069,382.616 103.473,383.471 102.829 C 384.808 101.822,387.543 99.234,388.333 98.227 C 390.701 95.213,392.115 92.744,393.142 89.833 C 394.365 86.367,394.681 81.313,393.860 78.333 C 393.502 77.034,392.327 74.379,392.018 74.171 C 391.947 74.123,391.813 73.946,391.722 73.779 C 389.801 70.260,383.693 68.235,377.833 69.174 M179.070 69.347 C 175.591 69.930,171.885 73.556,169.819 78.399 C 169.541 79.050,169.248 79.733,169.168 79.917 C 169.089 80.100,168.938 80.550,168.833 80.917 C 168.729 81.283,168.582 81.733,168.507 81.917 C 168.432 82.100,168.283 82.587,168.177 83.000 C 168.071 83.412,167.917 83.900,167.835 84.083 C 167.752 84.267,167.526 84.979,167.332 85.667 C 167.138 86.354,166.830 87.404,166.648 88.000 C 165.686 91.146,164.674 94.783,163.889 97.917 C 161.831 106.127,160.998 111.302,160.952 116.167 C 160.925 119.017,161.200 121.898,161.517 122.094 C 161.599 122.145,161.667 122.323,161.667 122.491 C 161.667 122.658,161.979 123.418,162.360 124.180 C 165.559 130.571,174.326 131.055,177.791 125.032 C 178.143 124.418,180.048 120.692,182.023 116.750 C 186.473 107.866,187.865 105.248,189.221 103.208 C 190.242 101.674,190.232 101.659,190.500 105.250 C 190.595 106.533,190.748 108.071,190.838 108.667 C 190.928 109.263,191.117 110.537,191.257 111.500 C 191.941 116.193,192.827 118.873,194.593 121.591 C 198.230 127.189,206.764 125.486,208.825 118.750 C 208.937 118.383,209.135 117.847,209.264 117.558 C 209.394 117.269,209.500 116.960,209.500 116.871 C 209.500 116.781,209.676 116.305,209.891 115.812 C 210.106 115.320,210.425 114.581,210.600 114.171 C 211.744 111.479,215.174 105.119,216.004 104.148 L 216.486 103.583 216.487 104.667 C 216.488 105.889,216.250 109.490,216.052 111.250 C 215.586 115.392,216.110 126.907,216.830 128.333 C 216.899 128.471,217.010 128.883,217.076 129.250 C 217.435 131.239,218.854 134.433,220.259 136.417 C 224.461 142.348,232.417 140.606,232.417 133.754 C 232.417 131.785,232.315 131.416,231.136 129.083 C 230.380 127.590,230.040 126.142,229.922 123.917 C 229.740 120.481,230.292 109.331,230.835 105.500 C 230.932 104.813,231.122 103.388,231.256 102.333 C 231.603 99.608,232.691 92.836,232.996 91.500 C 235.036 82.576,232.364 76.587,226.109 76.059 C 222.531 75.757,220.241 77.273,216.113 82.673 C 216.005 82.815,215.572 83.377,215.150 83.923 C 214.729 84.470,214.091 85.299,213.734 85.766 C 212.239 87.718,209.244 91.602,209.054 91.833 C 208.941 91.971,208.165 92.943,207.329 93.994 C 206.396 95.167,205.844 95.747,205.899 95.494 C 205.949 95.268,206.105 94.596,206.247 94.000 C 206.690 92.138,207.209 89.193,207.832 85.000 C 208.987 77.237,205.670 72.000,199.598 72.000 C 195.320 72.000,192.697 74.035,188.208 80.833 C 187.452 81.979,186.768 82.996,186.689 83.094 C 186.610 83.191,186.450 83.449,186.333 83.667 C 186.217 83.884,186.054 84.142,185.971 84.240 C 185.888 84.337,185.417 85.054,184.925 85.833 C 183.251 88.483,180.260 92.217,181.131 90.570 C 181.224 90.394,181.506 89.725,181.758 89.083 C 182.374 87.512,182.819 86.469,183.712 84.500 C 183.940 83.996,184.370 83.021,184.667 82.333 C 184.964 81.646,185.263 81.008,185.332 80.917 C 185.400 80.825,185.551 80.450,185.667 80.083 C 185.782 79.717,185.934 79.342,186.004 79.250 C 186.074 79.158,186.287 78.558,186.477 77.917 C 188.119 72.362,184.699 68.405,179.070 69.347 M113.952 72.125 C 113.815 73.475,113.349 78.807,113.170 81.083 C 113.076 82.275,113.000 84.051,113.000 85.030 C 113.000 86.585,112.963 86.821,112.708 86.889 C 112.548 86.933,111.329 87.134,110.000 87.338 C 108.671 87.541,106.796 87.837,105.833 87.997 C 104.871 88.156,104.072 88.278,104.059 88.268 C 104.045 88.258,104.183 87.688,104.365 87.000 C 104.547 86.313,104.871 85.037,105.087 84.167 C 105.302 83.296,105.665 81.871,105.893 81.000 C 106.120 80.129,106.539 78.517,106.824 77.417 C 107.669 74.147,107.883 73.500,108.117 73.500 C 108.239 73.500,108.468 73.426,108.627 73.337 C 108.786 73.247,109.629 72.906,110.500 72.579 C 111.371 72.253,112.421 71.841,112.833 71.665 C 113.970 71.179,114.045 71.210,113.952 72.125 M299.933 74.342 C 299.332 74.493,297.469 75.633,297.083 76.085 C 295.627 77.797,294.443 79.811,293.119 82.833 C 292.686 83.820,291.512 87.424,291.234 88.619 C 291.089 89.241,290.820 90.388,290.636 91.167 C 289.958 94.043,289.327 98.012,288.796 102.750 C 288.528 105.135,288.526 117.718,288.792 119.583 C 289.537 124.790,289.715 125.516,290.759 127.583 C 293.408 132.829,299.792 133.849,303.583 129.632 C 304.268 128.870,305.333 127.418,305.333 127.247 C 305.333 127.208,305.514 126.781,305.735 126.297 C 306.093 125.513,307.409 121.659,308.596 117.917 C 309.069 116.426,310.267 113.018,310.589 112.250 C 310.704 111.975,311.076 111.037,311.416 110.167 C 312.799 106.620,314.525 103.766,314.904 104.402 C 317.724 109.140,319.507 110.798,322.707 111.655 C 328.461 113.197,331.926 107.058,327.655 102.887 C 326.244 101.508,325.945 100.960,325.357 98.667 C 325.140 97.820,325.266 92.576,325.555 90.444 C 326.591 82.800,319.840 79.215,313.419 84.000 C 312.542 84.653,310.225 87.214,309.499 88.333 C 309.053 89.021,308.610 89.671,308.516 89.778 C 308.331 89.989,306.241 93.877,305.799 94.833 C 304.873 96.835,304.500 97.692,304.500 97.817 C 304.500 97.895,304.387 98.053,304.250 98.167 C 304.036 98.344,304.001 98.293,304.010 97.812 C 304.030 96.699,304.962 92.322,306.137 87.833 C 307.722 81.773,307.711 81.831,307.629 80.167 C 307.421 75.931,303.980 73.327,299.933 74.342 M258.125 78.484 C 259.519 79.878,261.214 84.810,260.952 86.711 C 260.609 89.201,255.218 93.996,252.682 94.067 L 252.083 94.083 252.031 93.255 C 251.975 92.359,252.219 90.702,252.584 89.500 C 252.709 89.087,253.051 87.962,253.343 87.000 C 253.635 86.037,253.940 85.179,254.021 85.092 C 254.101 85.005,254.167 84.838,254.167 84.722 C 254.167 84.605,254.354 84.100,254.583 83.599 C 254.813 83.098,255.000 82.641,255.000 82.584 C 255.000 82.062,257.240 78.001,257.529 78.000 C 257.591 78.000,257.859 78.218,258.125 78.484 M380.073 85.613 C 378.898 88.601,375.950 92.476,374.034 93.552 L 373.496 93.855 372.993 93.352 C 372.248 92.607,372.451 92.018,374.313 89.520 C 375.381 88.086,378.191 85.253,378.917 84.878 C 379.192 84.736,379.456 84.559,379.505 84.485 C 379.553 84.411,379.778 84.280,380.005 84.195 C 380.590 83.976,380.604 84.262,380.073 85.613 M153.753 85.625 C 154.114 86.244,154.692 87.178,155.038 87.700 C 155.384 88.223,155.667 88.729,155.667 88.825 C 155.667 88.921,155.728 89.000,155.802 89.000 C 156.636 89.000,156.444 90.425,155.251 93.083 C 154.440 94.892,153.333 97.483,153.333 97.575 C 153.333 97.636,153.191 98.000,153.017 98.384 C 152.843 98.769,152.501 99.571,152.257 100.167 C 151.113 102.957,150.664 103.852,150.471 103.732 C 150.301 103.627,147.685 100.945,145.379 98.511 L 144.363 97.439 144.807 96.844 C 145.050 96.518,145.307 96.175,145.377 96.083 C 147.089 93.844,151.328 87.370,152.554 85.125 C 152.997 84.314,152.987 84.310,153.753 85.625 M384.000 132.270 L 384.000 136.040 383.476 135.528 C 380.540 132.657,375.599 134.735,375.211 139.003 C 374.793 143.602,380.192 146.357,383.508 143.236 L 383.932 142.836 384.132 143.585 C 384.321 144.291,384.365 144.333,384.916 144.333 L 385.500 144.333 385.500 136.417 L 385.500 128.500 384.750 128.500 L 384.000 128.500 384.000 132.270 M359.500 136.750 L 359.500 144.333 360.333 144.333 L 361.167 144.333 361.167 140.762 L 361.167 137.191 362.125 138.217 C 364.541 140.803,365.184 141.504,366.703 143.208 L 367.706 144.333 368.770 144.333 C 370.163 144.333,370.145 144.252,368.315 142.333 C 367.485 141.462,365.942 139.833,364.886 138.713 L 362.967 136.675 363.775 135.716 C 364.747 134.563,365.494 133.701,365.833 133.343 C 365.971 133.198,366.383 132.706,366.750 132.251 C 367.397 131.447,368.018 130.721,368.792 129.866 C 369.351 129.248,369.269 129.167,368.083 129.167 C 367.488 129.167,367.000 129.226,367.000 129.298 C 367.000 129.371,366.719 129.742,366.375 130.123 C 366.031 130.505,365.637 130.954,365.500 131.123 C 365.182 131.512,362.701 134.447,362.223 135.000 C 362.024 135.229,361.708 135.604,361.520 135.833 L 361.178 136.250 361.172 132.708 L 361.167 129.167 360.333 129.167 L 359.500 129.167 359.500 136.75 M371.207 130.164 C 370.644 131.065,371.126 132.000,372.153 132.000 C 373.214 132.000,373.777 130.786,373.029 130.109 C 372.587 129.709,371.470 129.743,371.207 130.164 M389.757 134.436 C 386.542 135.592,387.372 139.219,391.064 140.145 C 392.648 140.542,393.167 140.918,393.167 141.666 C 393.167 142.927,391.094 143.396,389.293 142.541 C 388.263 142.053,388.081 142.068,387.835 142.664 C 387.025 144.618,392.354 145.239,394.125 143.397 C 395.887 141.565,394.792 139.477,391.568 138.523 C 389.793 137.998,389.081 137.219,389.628 136.400 C 390.057 135.756,391.861 135.628,392.917 136.167 C 393.851 136.643,394.333 136.389,394.333 135.420 C 394.333 134.538,391.293 133.884,389.757 134.436 M371.333 139.417 L 371.333 144.333 372.083 144.333 L 372.833 144.333 372.833 139.417 L 372.833 134.500 372.083 134.500 L 371.333 134.500 371.333 139.417 M91.125 135.455 C 90.781 135.491,90.500 135.591,90.500 135.677 C 90.500 135.886,90.940 135.855,91.750 135.588 C 92.422 135.367,92.273 135.335,91.125 135.455 M382.132 136.334 C 385.299 138.114,383.987 142.892,380.333 142.890 C 378.136 142.890,376.813 141.587,376.813 139.424 C 376.813 136.596,379.658 134.943,382.132 136.334 M354.029 142.219 C 353.209 143.092,353.756 144.500,354.917 144.500 C 355.712 144.500,356.167 144.020,356.167 143.179 C 356.167 142.002,354.806 141.392,354.029 142.219 " stroke="none" fill="#FFFFFF" fill-rule="evenodd"/>
    
    <!-- Path2, Path3 (detalles) ahora blancos -->
    <path id="path2" d="M160.217 39.167 C 160.217 39.671,160.248 39.877,160.286 39.625 C 160.324 39.373,160.324 38.960,160.286 38.708 C 160.248 38.456,160.217 38.662,160.217 39.167 " stroke="none" fill="#FFFFFF" fill-rule="evenodd"/>
    <path id="path3" d="M160.218 37.417 C 160.219 37.967,160.250 38.172,160.287 37.872 C 160.325 37.572,160.324 37.122,160.286 36.872 C 160.248 36.622,160.217 36.867,160.218 37.417 M160.223 41.167 C 160.223 41.854,160.252 42.135,160.288 41.792 C 160.324 41.448,160.324 40.885,160.288 40.542 C 160.252 40.198,160.223 40.479,160.223 41.167 " stroke="none" fill="#FFFFFF" fill-rule="evenodd"/>
    <path id="path4" d="" stroke="none" fill="#FFFFFF" fill-rule="evenodd"/>
  </g>
</svg>